<svg xmlns="http://www.w3.org/2000/svg" viewBox="0 0 144.57 141.73" role="img" aria-labelledby="logo-title"><title id="logo-title">Glory Global Solutions</title><rect width="144.57" height="141.73" fill="#111986"></rect><path d="M-608.16,493a1.33,1.33,0,0,0-.88-.34h-15.21a1.31,1.31,0,0,0-.88.34l-2.21,2a1.32,1.32,0,0,0-.42,1v10.81a1.32,1.32,0,0,0,.38.93l2.16,2.23a1.33,1.33,0,0,0,1,.4H-609a1.32,1.32,0,0,0,1-.4l2.16-2.23a1.32,1.32,0,0,0,.38-.93V496a1.32,1.32,0,0,0-.42-1l-2.21-2m-2.49,12.42a.53.53,0,0,1-.53.53h-10.95a.53.53,0,0,1-.53-.53v-7.8a.53.53,0,0,1,.53-.53h10.95a.53.53,0,0,1,.53.53Zm-52.44-5.85h14.22v7.25a1.31,1.31,0,0,1-.38.93l-2.16,2.23a1.33,1.33,0,0,1-1,.4H-669a1.33,1.33,0,0,1-1-.4l-2.16-2.23a1.31,1.31,0,0,1-.38-.93V496a1.31,1.31,0,0,1,.42-1l2.21-2a1.32,1.32,0,0,1,.89-.34h18v4h-15.88a.53.53,0,0,0-.53.53v8.69a.53.53,0,0,0,.53.53h12.5a.53.53,0,0,0,.53-.53v-2.41h-9.28Zm22.34,6.38h11.59v4.43h-14a1.33,1.33,0,0,1-1-.4l-2.16-2.23a1.31,1.31,0,0,1-.38-.93V492.62h5.39v12.77a.53.53,0,0,0,.53.53m85.37-12.67-10.74,10.35v6.75h-5.74V503.6l-10.74-10.34a.38.38,0,0,1-.1-.25.38.38,0,0,1,.37-.38h6.43l6.64,6.57a.38.38,0,0,0,.26.11.38.38,0,0,0,.26-.11l6.65-6.57h6.43a.37.37,0,0,1,.37.38.37.37,0,0,1-.09.24m-30,11.38,2.67-1.61a1.33,1.33,0,0,0,.64-1.14v-5.34a1.34,1.34,0,0,0-.4-1l-2.63-2.58a1.33,1.33,0,0,0-.93-.38h-13.85a1.32,1.32,0,0,0-.89.34l-2.21,2h0a1.32,1.32,0,0,0-.42,1v14.37h4.86V505h6.74l5.1,5.31h5.89a.37.37,0,0,0,.37-.37.37.37,0,0,0-.09-.24Zm-1.78-3.58h-11.36v-4.42h11.36a.53.53,0,0,1,.53.53v3.36a.53.53,0,0,1-.53.53" transform="translate(687.15 -429.74)" fill="#fff"></path></svg>