<svg xmlns="http://www.w3.org/2000/svg" preserveAspectRatio="none" viewBox="0 0 237.2 45.5" enable-background="new 0 0 237.2 45.5"><path fill="#E1002A" d="M16.1 39.3c5.2 0 9.8-.9 12.5-2.7 3.5-2.3 5.9-6.3 8.3-13.8 2.1-6.7 3.1-11.5.8-14.1-1.5-1.8-5.2-2.6-9.9-2.6h-.6s-2 0-4 .2l-9.9 31s-.5 2 1.9 2h.9zM12.5 5.2c-.2-.7-2-4.3-2-4.3h18.8c6.3 0 14 .6 17.9 4.9 3.1 3.5 3.4 9 .8 16.9-6.5 20.3-20.7 22-35.5 22H0L12.5 5.2zM67.1 39.3H87l-1.7 5.3H52.1L64.6 5.2c-.2-.7-2-4.3-2-4.3h35.2l-1.7 5.3H75.2l-4.1 13h14.6L84 24.5H69.4l-4 12.7c-.1 0-.6 2 1.7 2.1"/><path fill="#E1002A" d="M101.2 44.6l10-32.2 12.1 32.2h9.4L146.8.9h-7.6l-9.6 30.6-.1-.4L118.2.9h-14.4s1.8 3.6 2 4.3L93.3 44.6h7.9zM183.8 8.2c-1.7-.8-5.8-2.6-11.7-2.6-1.7 0-5.7.5-7.1 4.7-1.2 3.6 2.7 5.5 7.2 7.8 5.7 2.9 12.3 6.1 9.7 14-2.7 8.5-11.6 13.5-24.2 13.3-9.2-.1-13.7-1.9-13.7-1.9l2.6-8.1 1.9 1.1c1.8 1.1 6.7 3.5 12.2 3.5 1.8 0 4.4-.3 6.5-1.6 1.5-.9 2.5-2.4 3.2-4.3 1.2-3.9-2.7-5.9-7.3-8.2-5.6-2.8-12-6.1-9.5-13.7 1-3.2 3.1-5.9 6.2-7.9 4-2.6 8.4-3.9 15.6-4 5.1 0 10 .6 12 1.2l.8.2-.3.9-1.5 4.5-.8 1.9-1.8-.8zM208 40.1c2.7 0 5.1-.6 7.1-2 4.5-3.1 7.1-9.5 9-15.2 2-6.3 3.5-12.5.8-15.6-1.2-1.3-3-1.9-5.6-1.9-9.6 0-13.6 8.4-16.6 17.5-1.6 4.9-3.3 11.8-.4 15.2 1.1 1.4 3 2 5.7 2m-16.6-17.2c2.9-8.9 6.8-14.8 12.3-18.4 4.6-3 10.2-4.5 17.1-4.5 6.6 0 11.1 1.4 13.7 4.4 3.2 3.7 3.4 9.6.6 18.5-3.1 9.7-9.5 22.6-28.9 22.6-6.9 0-11.5-1.5-14.2-4.5-3.1-3.6-3.3-9.4-.6-18.1"/></svg>